<?xml version="1.0" encoding="UTF-8"?>
<svg width="635" height="87" xmlns="http://www.w3.org/2000/svg"><g fill="#1D1D1B" fill-rule="nonzero"><path d="M0 0v21.75L21.75 43.5 0 65.25V87l43.5-43.5zM80.8 19.1l1.26 16h2.16v3.8h-9.63v-3.82h2.32l-.76-12.36H76l-5.17 13.52h-4l-5-12.42h-.17l-.8 11.26h2.33v3.82h-9.7v-3.82h2.16l1.26-16h-2.69v-3.8h9.2l5.42 14.28 5.71-14.28h8.9v3.82zM84.87 28.6c0-2 .13-5.51 4.72-6.61 1.053-.266 2.134-.4 3.22-.4a25.85 25.85 0 017.44 1.1v12.62h2.19v3.59h-6.18l-.29-1a10.89 10.89 0 01-4.69 1.26c-5 0-6.41-3-6.41-7.14V28.6zm4.95 3.69c0 2.19.56 3 2.92 3a10.22 10.22 0 002.56-.46v-9.19a19.6 19.6 0 00-2.56-.2c-2.55 0-2.92 1.1-2.92 3.29v3.56zM122.17 38.9h-5.54l-4.22-6.84-1.53 1.59v1.66h2.19v3.59h-9.37v-3.59h2.23V18.87h-2.49v-3.59h7.44v14l2.59-2.76 1-1.06h-1.86v-3.57h8.9v3.59h-2.16l-3.19 3.35 4 6.48h2zM127.48 31.79c0 2.56.93 3.22 2.12 3.45 2.37.404 4.8.27 7.11-.39v3.68a29.55 29.55 0 01-5.41.67c-6.18 0-8.74-1.8-8.74-8.74 0-7.41 3-8.87 8-8.87 4.49 0 7.31 1.53 7.31 7.18a28.28 28.28 0 01-.2 3l-10.19.02zm5.68-3.19c.2-2.23-.7-3.22-2.43-3.22h-.13c-1.63 0-2.76.56-3.06 3.22h5.62zM147.62 28.6c0-2 .13-5.51 4.71-6.61 1.056-.266 2.141-.4 3.23-.4a25.85 25.85 0 017.44 1.1v12.62h2.19v3.59H159l-.3-1a10.82 10.82 0 01-4.7 1.3c-5.05 0-6.41-3-6.41-7.14l.03-3.46zm4.95 3.69c0 2.19.56 3 2.92 3a10.22 10.22 0 002.56-.46v-9.19a19.6 19.6 0 00-2.56-.2c-2.56 0-2.92 1.1-2.92 3.29v3.56zM204.54 21.89v13.42h2.2v3.59h-9.37v-3.59h2.22v-9.83h-2.49v-3.59h7.44zm-2.49-1.83c-1.79 0-2.69-.36-2.69-2.42v-.27c0-2 .9-2.39 2.69-2.39s2.69.37 2.69 2.39v.27c0 2.06-.89 2.42-2.69 2.42zM217.93 35.31v3.59h-9.71v-3.59h2.23v-9H208v-3.59h2.42v-2.19c0-1.53.07-4.15 3.85-5a36.38 36.38 0 016.75-.53v3.9a28.26 28.26 0 00-4.59.37c-1 .23-1.06.89-1.06 1.69v1.76h8.54v-2.19c0-1.53.06-4.15 3.85-5a27.79 27.79 0 015.85-.53v3.9a19.93 19.93 0 00-3.69.37c-1 .23-1.06.89-1.06 1.69v1.76h4v3.62h-4v9h2.52v3.56h-9.7v-3.59h2.23v-9h-8.51v9h2.53zM238.14 31.79c0 2.56.93 3.22 2.13 3.45 2.37.404 4.799.27 7.11-.39v3.68a29.78 29.78 0 01-5.42.67c-6.18 0-8.73-1.8-8.73-8.74 0-7.41 3-8.87 8-8.87 4.48 0 7.3 1.53 7.3 7.18a28 28 0 01-.19 3l-10.2.02zm5.68-3.19c.2-2.23-.69-3.22-2.42-3.22h-.13c-1.63 0-2.76.56-3.06 3.22h5.61zM249.83 25.48v-3.59h6.58l.43 1.46c2.06-.73 4.15-1.76 6.31-1.76v4.35a27.35 27.35 0 00-5.88.67v8.7h2.19v3.59h-9.36v-3.59h2.22v-9.83h-2.49zM268.52 31.79c0 2.56.93 3.22 2.13 3.45 2.37.404 4.799.27 7.11-.39v3.68a29.78 29.78 0 01-5.42.67c-6.18 0-8.73-1.8-8.73-8.74 0-7.41 3-8.87 8-8.87 4.48 0 7.3 1.53 7.3 7.18a25.88 25.88 0 01-.2 3l-10.19.02zm5.68-3.19c.2-2.23-.69-3.22-2.42-3.22h-.13c-1.63 0-2.76.56-3.06 3.22h5.61zM300.27 35.31v3.59h-7.17v-9.57c0-2.19-.1-3.85-2.46-3.85a10.31 10.31 0 00-3 .5v9.33h2.23v3.59h-9.41v-3.59h2.23v-9.83h-2.49v-3.59h6.48l.3.93a11.28 11.28 0 014.68-1.23c5.05 0 6.38 2.33 6.38 6.48v7.24h2.23zM310.36 25.64a9.09 9.09 0 00-.93-.06c-2.75 0-3.52 1.43-3.52 3.62v2.39c0 2.19.77 3.62 3.52 3.62a25.54 25.54 0 005.25-.5v3.86a34.77 34.77 0 01-5.85.63 15.32 15.32 0 01-2.95-.33c-4.79-1.17-4.92-4.49-4.92-6.52v-3.92c0-2 .13-5.34 4.92-6.51.97-.21 1.958-.32 2.95-.33a34.77 34.77 0 015.85.63v5.62h-4.32v-2.2zM320.85 31.79c0 2.56.93 3.22 2.13 3.45 2.37.403 4.799.27 7.11-.39v3.68a29.78 29.78 0 01-5.42.67c-6.18 0-8.74-1.8-8.74-8.74 0-7.41 3-8.87 8-8.87 4.49 0 7.31 1.53 7.31 7.18a28.28 28.28 0 01-.2 3l-10.19.02zm5.68-3.19c.2-2.23-.7-3.22-2.42-3.22H324c-1.63 0-2.75.56-3.05 3.22h5.58zM174.12 38.9v-3.84h2.66V19h-2.66v-3.81h11c7.2.1 10.67 2.64 10.67 9.61v4.5c0 7.16-3.9 9.6-10.67 9.6h-11zm11-4.17c4.1 0 5.57-1.53 5.57-5.43v-4.5c0-4.17-1.87-5.44-5.57-5.44h-3.23v15.37h3.23zM73.91 71.56H69.1l-2.53-9.5h-.06L64 71.56h-4.84l-3.92-13.42h-2v-3.58H62v3.58h-1.84l1.66 7h.07l2.82-10h3.66l2.79 10h.06l1.7-7h-1.83v-3.58h8.7v3.58h-2zM88.47 54.56V68h2.19v3.58h-9.37V68h2.23v-9.86H81v-3.58h7.47zM86 52.73c-1.79 0-2.69-.37-2.69-2.43V50c0-2 .9-2.39 2.69-2.39s2.7.36 2.7 2.39v.26c-.03 2.1-.93 2.47-2.7 2.47zM101.94 71.53c-1.144.19-2.3.301-3.46.33-3.35 0-5.84-1.69-5.94-5.35v-8.33h-2.39v-3.62h2.55l.73-4.22h4v4.22h4.46v3.62h-4.44v7.7c0 1.1.5 2 1.7 2a20.23 20.23 0 002.79-.16v3.81zM116.22 71.56V61.13c0-2.46-.83-3-2.89-3a11.91 11.91 0 00-2.89.33V68h2.2v3.58h-9.37V68h2.22V51.53H103v-3.59h7.44v6.88a17.58 17.58 0 014.32-.56c5 0 6.41 2.32 6.41 6.47V68h2.2v3.58h-7.15v-.02zM150.18 68v3.58H144l-.3-.93a11.28 11.28 0 01-4.7 1.21c-5 0-6.38-2.32-6.38-6.47v-7.25h-2.49v-3.58h7.44v9.6c0 2.19.1 3.85 2.46 3.85a10.66 10.66 0 003-.5v-13H148V68h2.18zM156.26 67.81a7 7 0 001.49.2c1.66 0 2.56-.37 2.56-1.3 0-.69-.57-1-1.23-1.29L156 64c-2.69-1.3-3.75-2.43-3.75-5 0-3.15 2.26-4.71 7.37-4.71a12.322 12.322 0 014.92 1v4.61h-4.32v-1.76a6.59 6.59 0 00-1.3-.1c-1.09 0-1.72.47-1.72 1.1 0 .63.33.76.86 1l3.22 1.49c2.46 1.17 4 2.66 4 5.12 0 3.69-2.69 5.08-7.51 5.08a19.52 19.52 0 01-5.81-1.13v-4.78h4.32l-.02 1.89z"/></g></svg>